# Blender v2.83.0 OBJ File: 'alienAltar.blend'
# www.blender.org
o LowerBase_Cube.002
v 0.967006 0.146175 -0.952473
v 0.967006 0.146175 0.055153
v 0.967006 0.146175 1.062779
v 0.000000 0.146175 -0.952473
v 0.000000 0.146175 0.055153
v 0.000000 0.146175 1.062779
v -0.967005 0.146175 -0.952473
v -0.967005 0.146175 0.055153
v -0.967005 0.146175 1.062779
v -0.967005 -1.141560 -0.952473
v -0.967005 -1.141560 0.055153
v -0.967005 -1.141560 1.062779
v 0.000000 -1.141560 -0.952473
v 0.000000 -1.141560 0.055153
v 0.000000 -1.141560 1.062779
v 0.967006 -1.141560 -0.952473
v 0.967006 -1.141560 0.055153
v 0.967006 -1.141560 1.062779
v 0.967006 -1.023165 -1.960099
v 0.967006 -1.141560 -1.589532
v 0.000000 -1.141560 -1.589532
v 0.000000 -1.023165 -1.960099
v -0.967005 -1.141560 -1.589532
v -0.967005 -1.023165 -1.960099
v -0.967005 0.027780 -1.960099
v -0.967005 0.146175 -1.589532
v 0.000000 0.146175 -1.589532
v 0.000000 0.027780 -1.960099
v 0.967006 0.146175 -1.589532
v 0.967006 0.027780 -1.960099
v -0.967005 -1.023165 2.070405
v -0.967005 -1.141560 1.699838
v 0.000000 -1.141560 1.699838
v 0.000000 -1.023165 2.070405
v 0.967006 -1.141560 1.699838
v 0.967006 -1.023165 2.070405
v 0.967006 0.027780 2.070405
v 0.967006 0.146175 1.699838
v 0.000000 0.146175 1.699838
v 0.000000 0.027780 2.070405
v -0.967005 0.146175 1.699838
v -0.967005 0.027780 2.070405
v -1.934011 -1.023165 -0.952473
v -1.578383 -1.141560 -0.952473
v -1.578383 -1.141560 0.055153
v -1.934011 -1.023165 0.055153
v -1.578383 -1.141560 1.062779
v -1.934011 -1.023165 1.062779
v -1.934011 0.027780 1.062779
v -1.578383 0.146175 1.062779
v -1.578383 0.146175 0.055153
v -1.934011 0.027780 0.055153
v -1.578383 0.146175 -0.952473
v -1.934011 0.027780 -0.952473
v 1.934011 -1.023165 1.062779
v 1.578383 -1.141560 1.062779
v 1.578383 -1.141560 0.055153
v 1.934011 -1.023165 0.055153
v 1.578383 -1.141560 -0.952473
v 1.934011 -1.023165 -0.952473
v 1.934011 0.027780 -0.952473
v 1.578383 0.146175 -0.952473
v 1.578383 0.146175 0.055153
v 1.934011 0.027780 0.055153
v 1.578383 0.146175 1.062779
v 1.934011 0.027780 1.062779
v -1.053744 -1.141560 1.699838
v -1.201050 -1.023165 2.070405
v -1.578383 -1.141560 1.153161
v -1.934011 -1.023165 1.306655
v -1.578383 0.146175 1.153161
v -1.934011 0.027780 1.306655
v -1.053744 0.146175 1.699838
v -1.201050 0.027780 2.070405
v -1.578383 -1.141560 -1.042855
v -1.934011 -1.023165 -1.196349
v -1.053744 -1.141560 -1.589532
v -1.201050 -1.023165 -1.960099
v -1.053744 0.146175 -1.589532
v -1.201050 0.027780 -1.960099
v -1.578383 0.146175 -1.042855
v -1.934011 0.027780 -1.196349
v 1.578383 -1.141560 1.153161
v 1.934011 -1.023165 1.306655
v 1.053744 -1.141560 1.699838
v 1.201050 -1.023165 2.070405
v 1.053744 0.146175 1.699838
v 1.201050 0.027780 2.070405
v 1.578383 0.146175 1.153161
v 1.934011 0.027780 1.306655
v 1.053744 -1.141560 -1.589532
v 1.201050 -1.023165 -1.960099
v 1.578383 -1.141560 -1.042855
v 1.934011 -1.023165 -1.196349
v 1.578383 0.146175 -1.042855
v 1.934011 0.027780 -1.196349
v 1.053744 0.146175 -1.589532
v 1.201050 0.027780 -1.960099
vt 2.525050 0.490688
vt 1.744447 -0.701254
vt 2.526563 -0.699989
vt -0.013361 -2.370080
vt 0.994491 -3.297434
vt 0.994490 -2.370080
vt -0.744448 1.661989
vt -1.525050 0.470046
vt -0.739962 0.474194
vt -0.013361 -1.442727
vt 0.994490 -1.442726
vt -0.013362 1.963367
vt 0.994490 0.997058
vt 0.994490 1.963367
vt 0.975528 0.654508
vt 0.793893 0.095491
vt 0.206107 0.095492
vt 0.509745 -1.463385
vt 1.750620 -1.451417
vt -0.732339 -0.713768
vt -1.513096 -0.826693
vt -0.841847 -1.463357
vt -1.526159 1.767136
vt -0.861535 2.410453
vt -0.013360 -5.737219
vt 0.994492 -6.703526
vt 0.994491 -5.737218
vt -0.013361 -3.297434
vt 0.994490 -3.521881
vt 0.206107 0.095492
vt 0.500000 1.000000
vt 0.793893 0.095491
vt -0.013361 -1.218279
vt 0.994490 -1.218278
vt 1.000000 0.000000
vt 0.000000 1.000000
vt 0.000000 0.000000
vt 1.000000 0.000000
vt 0.000000 1.000000
vt 0.000000 0.000000
vt 2.514543 1.680962
vt 1.739961 0.486541
vt -0.013360 5.516001
vt 0.994491 5.291553
vt 0.994491 5.516001
vt -0.013361 3.436844
vt 0.994490 3.212396
vt 0.994490 3.436844
vt 0.793893 0.095491
vt 0.206107 0.095492
vt 0.024472 0.654509
vt 1.000000 0.000000
vt 0.000000 1.000000
vt 0.000000 0.000000
vt 1.000000 0.000000
vt 0.000000 1.000000
vt 0.000000 0.000000
vt -0.013361 5.291553
vt 0.994491 4.364198
vt 1.000000 0.000000
vt 0.000000 1.000000
vt 0.000000 0.000000
vt 1.000000 0.000000
vt 0.000000 1.000000
vt 0.000000 0.000000
vt -0.013360 -4.770911
vt 0.994491 -4.770911
vt -0.013359 -6.703528
vt 0.994492 -6.937403
vt -0.013360 -4.537035
vt 0.994491 -4.537034
vt 1.841847 2.424091
vt 1.730989 2.424705
vt 1.732339 1.674503
vt 0.500000 0.480368
vt 0.493859 1.670321
vt 2.526159 -0.806401
vt 0.506140 -0.709586
vt -0.730990 -1.463970
vt -0.013361 -3.521882
vt -1.514544 -0.720227
vt -0.013361 0.997058
vt 0.994490 0.030750
vt 1.000000 0.000000
vt 0.000000 1.000000
vt 0.000000 0.000000
vt -0.013361 2.197244
vt 0.994490 2.197243
vt -0.013361 0.030750
vt 0.994490 -0.203126
vt -0.013361 4.364199
vt 1.000000 0.000000
vt 0.000000 1.000000
vt 0.000000 0.000000
vt 1.000000 0.000000
vt 0.000000 1.000000
vt 0.000000 0.000000
vt 0.975528 0.654508
vt 0.206107 0.095492
vt 0.024472 0.654509
vt 1.000000 0.000000
vt 0.000000 1.000000
vt 0.000000 0.000000
vt 1.000000 0.000000
vt 0.000000 1.000000
vt 0.000000 0.000000
vt -0.013360 6.531154
vt -0.013361 -0.203126
vt -0.013361 3.212396
vt 0.490255 2.424119
vt 0.000000 1.000000
vt 0.000000 0.000000
vt 1.000000 0.000000
vt 0.000000 1.000000
vt 0.000000 0.000000
vt 2.994181 1.689947
vt 3.005714 0.493110
vt 1.000000 0.000000
vt 0.000000 1.000000
vt 0.000000 0.000000
vt 1.000000 0.000000
vt 0.000000 1.000000
vt 0.000000 0.000000
vt -1.994182 -0.729213
vt -1.526563 1.660723
vt -2.005714 0.467625
vt 1.000000 0.000000
vt 0.000000 1.000000
vt 1.000000 0.000000
vt 0.000000 1.000000
vt -0.760534 2.875219
vt -0.750621 2.412152
vt 0.487877 2.887674
vt 0.000000 1.000000
vt 0.000000 0.000000
vt 0.000000 1.000000
vt 0.000000 0.000000
vt 1.760533 -1.914484
vt 0.512122 -1.926940
vt 1.000000 0.000000
vt 0.000000 1.000000
vt 0.000000 0.000000
vt -1.065238 2.867150
vt -2.001903 1.955971
vt 2.513096 1.787428
vt 2.040749 2.882372
vt 0.000000 0.000000
vt 1.000000 1.000000
vt 0.000000 1.000000
vt 2.065237 -1.906417
vt 3.001902 -0.995237
vt 1.000000 0.000000
vt 0.000000 1.000000
vt 0.000000 0.000000
vt -1.040749 -1.921638
vt 0.000000 0.000000
vt 1.000000 1.000000
vt 0.000000 1.000000
vt 1.000000 0.000000
vt 0.000000 1.000000
vt 0.000000 0.000000
vt 0.000000 0.000000
vt 1.000000 1.000000
vt 0.000000 1.000000
vt -2.005713 1.664968
vt 1.000000 0.000000
vt 0.000000 1.000000
vt 2.987322 1.981213
vt 0.000000 0.000000
vt 1.000000 1.000000
vt 0.000000 1.000000
vt 1.736314 2.887187
vt 1.000000 0.000000
vt 0.000000 1.000000
vt 0.000000 0.000000
vt -1.987322 -1.020478
vt 0.000000 0.000000
vt 1.000000 1.000000
vt 0.000000 1.000000
vt -0.736314 -1.926453
vt 1.000000 0.000000
vt 0.000000 1.000000
vt 0.000000 0.000000
vt 1.861536 -1.449719
vt 0.000000 0.000000
vt 1.000000 1.000000
vt 0.000000 1.000000
vt 3.005714 -0.704234
vt 1.000000 0.000000
vt 0.000000 1.000000
vt 0.024472 0.654509
vt 0.500000 1.000000
vt 0.024472 0.654509
vt 0.975528 0.654508
vt 1.000000 1.000000
vt 1.000000 1.000000
vt 0.500000 1.000000
vt 0.975528 0.654508
vt 1.000000 1.000000
vt 1.000000 1.000000
vt 1.000000 1.000000
vt 1.000000 1.000000
vt -0.013359 -6.937403
vt 1.000000 1.000000
vt 1.000000 1.000000
vt 1.000000 1.000000
vt 0.500000 1.000000
vt 0.793893 0.095491
vt 1.000000 1.000000
vt 1.000000 1.000000
vt 0.994491 6.531154
vt 1.000000 1.000000
vt 1.000000 1.000000
vt 1.000000 1.000000
vt 1.000000 1.000000
vt 1.000000 1.000000
vt 1.000000 1.000000
vt 1.000000 1.000000
vt 1.000000 1.000000
vt 1.000000 1.000000
vt 1.000000 0.000000
vt 1.000000 1.000000
vt 1.000000 0.000000
vt 1.000000 1.000000
vt 1.000000 0.000000
vt 1.000000 1.000000
vt 1.000000 0.000000
vt 1.000000 1.000000
vt 1.000000 0.000000
vt 1.000000 1.000000
vt 1.000000 0.000000
vt 1.000000 1.000000
vn 0.0000 1.0000 0.0000
vn 0.0000 0.0000 1.0000
vn 1.0000 0.0000 0.0000
vn 0.0000 -1.0000 0.0000
vn -1.0000 0.0000 0.0000
vn 0.0000 0.0000 -1.0000
vn -0.7215 0.0000 0.6924
vn -0.7215 0.0000 -0.6924
vn 0.7215 0.0000 0.6924
vn 0.7215 0.0000 -0.6924
vn 0.0000 -0.9526 -0.3043
vn 0.0000 0.9526 -0.3043
vn 0.0000 -0.9526 0.3043
vn 0.0000 0.9526 0.3043
vn -0.3159 -0.9488 0.0000
vn -0.3159 0.9488 0.0000
vn 0.3159 -0.9488 0.0000
vn 0.3159 0.9488 0.0000
vn -0.2238 -0.9507 0.2148
vn -0.2238 0.9507 0.2148
vn -0.2238 0.9507 -0.2148
vn -0.2238 -0.9507 -0.2148
vn 0.2238 0.9507 -0.2148
vn 0.2238 -0.9507 -0.2148
vn 0.2238 0.9507 0.2148
vn 0.2238 -0.9507 0.2148
s off
f 27/1/1 1/2/1 29/3/1
f 40/4/2 31/5/2 34/6/2
f 9/7/1 39/8/1 6/9/1
f 37/10/2 34/6/2 36/11/2
f 61/12/3 58/13/3 60/14/3
f 77/15/4 23/16/4 10/17/4
f 1/2/1 63/18/1 62/19/1
f 3/20/1 87/21/1 89/22/1
f 73/23/1 9/7/1 71/24/1
f 52/25/5 43/26/5 46/27/5
f 42/28/2 68/29/2 31/5/2
f 85/30/4 18/31/4 83/32/4
f 88/33/2 36/11/2 86/34/2
f 18/35/4 33/36/4 15/37/4
f 15/38/4 32/39/4 12/40/4
f 26/41/1 4/42/1 27/1/1
f 80/43/6 24/44/6 78/45/6
f 30/46/6 92/47/6 19/48/6
f 93/49/4 59/50/4 16/51/4
f 16/52/4 14/53/4 13/54/4
f 17/55/4 15/56/4 14/57/4
f 25/58/6 22/59/6 24/44/6
f 13/60/4 11/61/4 10/62/4
f 14/63/4 12/64/4 11/65/4
f 49/66/5 46/27/5 48/67/5
f 54/68/5 76/69/5 43/26/5
f 72/70/5 48/67/5 70/71/5
f 81/72/1 53/73/1 7/74/1
f 7/74/1 5/75/1 4/42/1
f 8/76/1 6/9/1 5/75/1
f 97/77/1 29/3/1 1/2/1
f 4/42/1 2/78/1 1/2/1
f 5/75/1 3/20/1 2/78/1
f 2/78/1 65/79/1 63/18/1
f 74/80/7 70/71/7 68/29/7
f 6/9/1 38/81/1 3/20/1
f 64/82/3 55/83/3 58/13/3
f 53/73/1 8/76/1 7/74/1
f 21/84/4 10/85/4 23/86/4
f 96/87/3 60/14/3 94/88/3
f 66/89/3 84/90/3 55/83/3
f 28/91/6 19/48/6 22/59/6
f 59/92/4 17/93/4 16/94/4
f 57/95/4 18/96/4 17/97/4
f 12/98/4 67/99/4 69/100/4
f 11/101/4 47/102/4 45/103/4
f 10/104/4 45/105/4 44/106/4
f 78/45/8 82/107/8 80/43/8
f 86/34/9 90/108/9 88/33/9
f 94/88/10 98/109/10 96/87/10
f 51/110/1 9/7/1 8/76/1
f 21/84/11 19/111/11 20/112/11
f 23/113/11 22/114/11 21/115/11
f 27/1/12 25/116/12 26/41/12
f 29/3/12 28/117/12 27/1/12
f 33/118/13 31/119/13 32/120/13
f 35/121/13 34/122/13 33/123/13
f 39/8/14 37/124/14 38/81/14
f 41/125/14 40/126/14 39/8/14
f 45/127/15 43/128/15 44/106/15
f 47/129/15 46/130/15 45/103/15
f 51/110/16 49/131/16 50/132/16
f 53/73/16 52/133/16 51/110/16
f 57/95/17 55/134/17 56/135/17
f 59/92/17 58/136/17 57/137/17
f 63/18/18 61/138/18 62/19/18
f 65/79/18 64/139/18 63/18/18
f 67/140/19 70/141/19 69/142/19
f 73/23/20 72/143/20 74/144/20
f 79/145/21 82/146/21 81/72/21
f 77/147/22 76/148/22 78/149/22
f 97/77/23 96/150/23 98/151/23
f 91/152/24 94/153/24 93/154/24
f 87/21/25 90/155/25 89/22/25
f 85/156/26 84/157/26 86/158/26
f 69/159/15 48/160/15 47/161/15
f 71/24/16 49/131/16 72/143/16
f 67/162/13 31/163/13 68/164/13
f 73/23/14 42/165/14 41/125/14
f 77/166/11 24/167/11 23/86/11
f 79/145/12 25/116/12 80/168/12
f 43/169/15 75/170/15 44/171/15
f 81/72/16 54/172/16 53/73/16
f 85/173/13 36/174/13 35/175/13
f 87/21/14 37/124/14 88/176/14
f 55/177/17 83/178/17 56/179/17
f 89/22/18 66/180/18 65/79/18
f 93/181/17 60/182/17 59/183/17
f 95/184/18 61/138/18 96/150/18
f 19/185/11 91/186/11 20/187/11
f 97/77/12 30/188/12 29/3/12
f 20/189/4 13/190/4 21/115/4
f 27/1/1 4/42/1 1/2/1
f 40/4/2 42/28/2 31/5/2
f 9/7/1 41/125/1 39/8/1
f 37/10/2 40/4/2 34/6/2
f 61/12/3 64/82/3 58/13/3
f 44/191/4 75/192/4 10/17/4
f 75/192/4 77/15/4 10/17/4
f 1/2/1 2/78/1 63/18/1
f 89/22/1 65/79/1 3/20/1
f 3/20/1 38/81/1 87/21/1
f 41/125/1 9/7/1 73/23/1
f 9/7/1 50/132/1 71/24/1
f 52/25/5 54/68/5 43/26/5
f 42/28/2 74/80/2 68/29/2
f 35/193/4 18/31/4 85/30/4
f 18/31/4 56/194/4 83/32/4
f 88/33/2 37/10/2 36/11/2
f 18/35/4 35/195/4 33/36/4
f 15/38/4 33/196/4 32/39/4
f 26/41/1 7/74/1 4/42/1
f 80/43/6 25/58/6 24/44/6
f 30/46/6 98/109/6 92/47/6
f 16/51/4 20/197/4 91/198/4
f 91/198/4 93/49/4 16/51/4
f 16/52/4 17/199/4 14/53/4
f 17/55/4 18/200/4 15/56/4
f 25/58/6 28/91/6 22/59/6
f 13/60/4 14/201/4 11/61/4
f 14/63/4 15/202/4 12/64/4
f 49/66/5 52/25/5 46/27/5
f 54/68/5 82/203/5 76/69/5
f 72/70/5 49/66/5 48/67/5
f 7/74/1 26/41/1 79/145/1
f 79/145/1 81/72/1 7/74/1
f 7/74/1 8/76/1 5/75/1
f 8/76/1 9/7/1 6/9/1
f 62/19/1 95/184/1 1/2/1
f 95/184/1 97/77/1 1/2/1
f 4/42/1 5/75/1 2/78/1
f 5/75/1 6/9/1 3/20/1
f 2/78/1 3/20/1 65/79/1
f 74/80/7 72/70/7 70/71/7
f 6/9/1 39/8/1 38/81/1
f 64/82/3 66/89/3 55/83/3
f 53/73/1 51/110/1 8/76/1
f 21/84/4 13/204/4 10/85/4
f 96/87/3 61/12/3 60/14/3
f 66/89/3 90/108/3 84/90/3
f 28/91/6 30/46/6 19/48/6
f 59/92/4 57/205/4 17/93/4
f 57/95/4 56/206/4 18/96/4
f 69/100/4 47/207/4 12/98/4
f 12/98/4 32/208/4 67/99/4
f 11/101/4 12/209/4 47/102/4
f 10/104/4 11/210/4 45/105/4
f 78/45/8 76/211/8 82/107/8
f 86/34/9 84/90/9 90/108/9
f 94/88/10 92/47/10 98/109/10
f 51/110/1 50/132/1 9/7/1
f 21/84/11 22/212/11 19/111/11
f 23/113/11 24/213/11 22/114/11
f 27/1/12 28/117/12 25/116/12
f 29/3/12 30/188/12 28/117/12
f 33/118/13 34/214/13 31/119/13
f 35/121/13 36/215/13 34/122/13
f 39/8/14 40/126/14 37/124/14
f 41/125/14 42/165/14 40/126/14
f 45/127/15 46/216/15 43/128/15
f 47/129/15 48/217/15 46/130/15
f 51/110/16 52/133/16 49/131/16
f 53/73/16 54/172/16 52/133/16
f 57/95/17 58/218/17 55/134/17
f 59/92/17 60/219/17 58/136/17
f 63/18/18 64/139/18 61/138/18
f 65/79/18 66/180/18 64/139/18
f 67/140/19 68/220/19 70/141/19
f 73/23/20 71/24/20 72/143/20
f 79/145/21 80/168/21 82/146/21
f 77/147/22 75/221/22 76/148/22
f 97/77/23 95/184/23 96/150/23
f 91/152/24 92/222/24 94/153/24
f 87/21/25 88/176/25 90/155/25
f 85/156/26 83/223/26 84/157/26
f 69/159/15 70/224/15 48/160/15
f 71/24/16 50/132/16 49/131/16
f 67/162/13 32/225/13 31/163/13
f 73/23/14 74/144/14 42/165/14
f 77/166/11 78/226/11 24/167/11
f 79/145/12 26/41/12 25/116/12
f 43/169/15 76/227/15 75/170/15
f 81/72/16 82/146/16 54/172/16
f 85/173/13 86/228/13 36/174/13
f 87/21/14 38/81/14 37/124/14
f 55/177/17 84/229/17 83/178/17
f 89/22/18 90/155/18 66/180/18
f 93/181/17 94/230/17 60/182/17
f 95/184/18 62/19/18 61/138/18
f 19/185/11 92/231/11 91/186/11
f 97/77/12 98/151/12 30/188/12
f 20/189/4 16/232/4 13/190/4
