# Blender v2.92.0 OBJ File: 'untitled.blend'
# www.blender.org
o Cube.007_Cube.009
v -4.233797 1.500000 3.340299
v -4.233797 3.500000 3.340299
v -4.233797 1.500000 -3.351767
v -4.233797 3.500000 -3.351767
v -6.063734 1.500000 -3.351767
v -6.063734 3.500000 -3.351767
v -6.063734 1.500000 3.340299
v -6.063734 3.500000 3.340299
v -4.233797 1.500000 3.340299
v -4.233797 1.500000 -3.351767
v -6.063734 1.500000 3.340299
v -6.063734 1.500000 -3.351767
v -4.233797 1.710492 -3.351767
v -6.063734 1.710492 -3.351767
v -4.233797 1.710492 3.340299
v -6.063734 1.710492 3.340299
v -15.954322 1.710492 -3.351767
v -15.954322 1.500000 -3.351767
v -15.954322 1.500000 3.340299
v -15.954322 1.710492 3.340299
v -6.063734 1.710492 -7.085426
v -6.063734 1.500000 -7.085426
v -15.954322 1.710492 -7.085426
v -15.954322 1.500000 -7.085426
v -6.063734 1.710492 6.456227
v -6.063734 1.500000 6.456227
v -15.954322 1.710492 6.456227
v -15.954322 1.500000 6.456227
v 2.795350 -2.310890 2.402021
v 2.795350 -0.310890 2.402021
v 2.795350 -2.310890 -3.141168
v 2.795350 -0.310890 -3.141168
v 4.795350 -2.310890 2.402021
v 4.795350 -0.310890 2.402021
v 4.795350 -2.310890 -3.141168
v 4.795350 -0.310890 -3.141168
v -6.219716 -1.571538 -3.411415
v -6.219716 1.500000 -3.411415
v 4.010752 -1.571538 -3.411416
v 4.010752 1.500000 -3.411416
v -6.219716 -1.571538 -1.411415
v -6.219716 1.500000 -1.411415
v 4.010752 -1.571538 -1.411416
v 4.010752 1.500000 -1.411416
v -4.263332 -1.571538 -3.411416
v -4.263332 1.500000 -3.411416
v -4.263332 -1.571538 -1.411416
v -4.263332 1.500000 -1.411416
v -9.067258 -1.210890 1.490570
v -9.067258 -1.210890 -1.611454
v 1.795350 -1.210890 1.490570
v 1.795350 -1.210890 -1.611454
v -5.984128 -1.210890 -1.611454
v -5.984128 -1.210890 1.490570
v -9.067258 -1.210890 -7.073370
v -5.984128 -1.210890 -7.073370
v -9.067258 -1.210890 6.468131
v -5.984128 -1.210890 6.468131
v -15.848296 -1.210890 1.490570
v -15.848296 -1.210890 -1.611454
v -15.848296 -1.210890 -7.073370
v -15.848296 -1.210890 6.468131
v -9.067258 -1.502924 1.490570
v -9.067258 -1.502924 -1.611454
v -5.984128 -1.502924 -1.611454
v 1.795350 -1.502924 -1.611454
v 1.795350 -1.502924 1.490570
v -5.984128 -1.502924 1.490570
v -9.067258 -1.502924 -7.073370
v -5.984128 -1.502924 -7.073370
v -5.984128 -1.502924 6.468131
v -9.067258 -1.502924 6.468131
v -15.848296 -1.502924 1.490570
v -15.848296 -1.502924 -1.611454
v -15.848296 -1.502924 -7.073370
v -15.848296 -1.502924 6.468131
v -6.357179 -1.502122 -2.662952
v -6.357179 1.665594 -2.662952
v -6.357179 -1.502122 -7.173018
v -6.357179 1.665594 -7.173018
v -5.882567 -1.502122 -2.662952
v -5.882567 1.665594 -2.662952
v -5.882567 -1.502122 -7.173018
v -5.882567 1.665594 -7.173018
v -6.357179 -1.502122 7.873678
v -6.357179 1.665594 7.873678
v -6.357179 -1.502122 3.363611
v -6.357179 1.665594 3.363611
v -5.882567 -1.502122 7.873678
v -5.882567 1.665594 7.873678
v -5.882567 -1.502122 3.363611
v -5.882567 1.665594 3.363611
v -16.009518 -1.502122 6.164987
v -16.009518 1.665594 6.164987
v -6.087364 -1.502122 6.164987
v -6.087364 1.665594 6.164987
v -16.009518 -1.502122 6.639598
v -16.009518 1.665594 6.639598
v -6.087364 -1.502122 6.639598
v -6.087364 1.665594 6.639598
v -16.009518 -1.502122 -7.432626
v -16.009518 1.665594 -7.432626
v -6.087364 -1.502122 -7.432626
v -6.087364 1.665594 -7.432626
v -16.009518 -1.502122 -6.958014
v -16.009518 1.665594 -6.958014
v -6.087364 -1.502122 -6.958014
v -6.087364 1.665594 -6.958014
v -15.919600 -1.502122 6.330011
v -15.919600 1.665594 6.330011
v -15.919600 -1.502122 -7.250026
v -15.919600 1.665594 -7.250026
v -15.444989 -1.502122 6.330011
v -15.444989 1.665594 6.330011
v -15.444989 -1.502122 -7.250026
v -15.444989 1.665594 -7.250026
v -6.520385 -1.571538 1.393080
v -6.520385 1.500000 1.393080
v 3.710083 -1.571538 1.393080
v 3.710083 1.500000 1.393080
v -6.520385 -1.571538 3.393080
v -6.520385 1.500000 3.393080
v 3.710083 -1.571538 3.393080
v 3.710083 1.500000 3.393080
v -4.564001 -1.571538 1.393080
v -4.564001 1.500000 1.393080
v -4.564001 -1.571538 3.393080
v -4.564001 1.500000 3.393080
v 1.795350 -2.610890 2.402021
v 1.795350 -0.610890 2.402021
v 1.795350 -2.610890 -3.141168
v 1.795350 -0.610890 -3.141168
v 3.795350 -2.610890 2.402021
v 3.795350 -0.610890 2.402021
v 3.795350 -2.610890 -3.141168
v 3.795350 -0.610890 -3.141168
v 0.795350 -2.910890 2.402021
v 0.795350 -0.910890 2.402021
v 0.795350 -2.910890 -3.141168
v 0.795350 -0.910890 -3.141168
v 2.795350 -2.910890 2.402021
v 2.795350 -0.910890 2.402021
v 2.795350 -2.910890 -3.141168
v 2.795350 -0.910890 -3.141168
vt 3.412288 2.012680
vt 1.485878 2.527816
vt 1.485878 2.012680
vt 3.323840 3.038721
vt 3.323840 3.506553
vt 1.574325 3.506553
vt 1.712129 2.973848
vt 3.461644 2.495446
vt 3.461644 2.973848
vt 2.163546 1.040636
vt 2.163546 1.508469
vt 1.685143 1.508470
vt 0.588910 0.256395
vt -1.337499 0.783167
vt -1.337499 0.256395
vt -1.337499 0.256393
vt 0.588910 -2.590759
vt 0.588910 0.256394
vt 0.588910 -2.651352
vt -1.337499 -2.590759
vt -1.337499 -2.651352
vt 0.588910 0.783167
vt -1.337499 3.630320
vt 1.485878 0.898538
vt 2.560667 0.959131
vt 1.485878 0.959131
vt 1.485877 3.630320
vt 0.588910 3.630320
vt 0.434864 -2.711945
vt 3.282015 -2.651352
vt 0.434864 -2.651352
vt -2.412288 -2.590759
vt -2.412288 -2.651352
vt -2.412288 0.783167
vt 0.434865 -2.651352
vt -2.412288 -2.711946
vt 0.434865 -2.711945
vt 2.382843 0.898537
vt 1.485878 0.837944
vt 2.382843 0.837944
vt 1.485878 -2.590759
vt 1.485878 0.256394
vt 1.567026 1.034704
vt 1.567026 0.979675
vt 2.045428 0.979675
vt 2.608213 0.471449
vt 0.341960 -0.346222
vt 2.608213 -0.346222
vt 0.248579 2.013412
vt -0.569092 1.195740
vt 0.248579 1.195740
vt 1.790541 0.471449
vt -0.475711 -0.346222
vt 1.790541 -0.346222
vt -0.569092 2.013412
vt -1.386763 1.195740
vt -0.569092 1.195740
vt 0.248579 -1.070513
vt -0.569092 1.195740
vt -0.569092 -1.070513
vt -2.111054 -0.346222
vt 0.155199 0.471449
vt -2.111054 0.471449
vt 1.357051 -1.695062
vt 2.184504 -1.695062
vt 2.184504 1.728147
vt 3.011956 0.846493
vt 2.184504 -0.424284
vt 3.011957 -0.424284
vt 3.011956 -0.424284
vt 2.184503 -1.695062
vt 3.011956 -1.695062
vt -1.412693 -0.214141
vt 2.010518 -0.214141
vt 2.010518 1.056636
vt -0.069668 -0.214142
vt 0.739740 -0.214142
vt 0.739740 1.056635
vt 1.357050 -0.885654
vt 1.357050 2.537556
vt 0.529597 2.537556
vt -2.711992 -0.544982
vt -1.627811 -1.622561
vt -2.711992 -1.622561
vt -1.627811 -4.341549
vt -2.711992 -4.341549
vt -4.620975 -0.544982
vt -1.627811 -0.544982
vt 0.111888 -1.622561
vt -1.627811 1.825043
vt 0.111884 1.825043
vt 0.111888 -0.544982
vt -2.711992 1.825043
vt 1.851583 -1.622561
vt 2.935768 -0.544982
vt 2.935768 -1.622561
vt 1.851583 -4.341549
vt 2.935768 -4.341549
vt 4.844747 -0.544982
vt 0.111888 -1.622561
vt 1.851583 -0.544982
vt 1.851583 1.825043
vt 0.111888 1.825043
vt 0.111888 -0.544982
vt 2.935768 1.825043
vt 4.946815 3.838911
vt 4.844747 1.468888
vt 4.844747 3.838911
vt 4.946815 -1.517670
vt 4.844747 -2.601854
vt 4.844747 -1.517670
vt 4.946815 1.468888
vt 4.844747 0.391309
vt -4.518906 5.272647
vt -4.620975 4.195074
vt -4.620975 5.272647
vt 4.946815 0.391309
vt 4.844747 0.391309
vt -4.314769 4.544029
vt -4.416838 1.825041
vt -4.416838 4.544029
vt -4.212701 3.734024
vt -4.314769 1.825041
vt -4.314769 3.734024
vt 4.946815 -2.601854
vt 4.844747 -4.341549
vt -4.416838 4.544032
vt -4.518906 1.825043
vt -4.518906 4.544032
vt -4.110633 3.564740
vt -4.212701 1.825043
vt -4.212701 3.564740
vt -4.518906 4.195074
vt -4.620975 1.825045
vt -4.008565 2.909225
vt -4.110633 1.825043
vt -4.110633 2.909225
vt 0.720485 0.652643
vt -1.197705 -0.694628
vt 0.720485 -0.694628
vt 2.067756 1.596197
vt 0.720486 1.798055
vt 0.720486 1.596197
vt 0.720485 1.999914
vt -1.197705 0.652643
vt 0.720485 0.652643
vt 2.067756 1.798056
vt 0.720485 1.999914
vt 0.720486 1.798056
vt -1.197705 -0.896486
vt -1.197705 -1.098345
vt 0.720485 -0.896487
vt -1.197705 -0.896487
vt 0.344174 0.591841
vt 2.277517 1.949755
vt 0.344174 1.949755
vt -1.013741 -0.359167
vt 0.344173 -0.562620
vt 0.344173 -0.359167
vt 0.344174 -0.766074
vt 2.277517 0.591841
vt 0.344174 0.591841
vt -1.013741 -0.562621
vt 0.344173 -0.766073
vt 0.344173 -0.562620
vt 2.277518 2.153208
vt 2.277518 2.356661
vt 0.344174 2.153208
vt 2.277518 2.153208
vt -0.540329 -0.389497
vt 3.625637 0.940516
vt -0.540329 0.940516
vt 0.965610 1.538335
vt 2.295623 1.339062
vt 2.295623 1.538335
vt -0.540330 -1.719510
vt 3.625637 -0.389497
vt -0.540329 -0.389497
vt 2.295623 1.538335
vt 3.625637 1.339062
vt 3.625637 1.538335
vt 3.625637 1.339062
vt -0.540329 1.139789
vt 3.625637 1.139789
vt -0.540329 0.940517
vt 3.625637 1.139789
vt -0.540329 1.139789
vt -0.754858 0.994392
vt 3.603930 2.385966
vt -0.754858 2.385966
vt 0.820784 3.011454
vt 2.212357 2.802958
vt 2.212357 3.011454
vt -0.754858 -0.397181
vt 3.603930 0.994392
vt -0.754858 0.994392
vt 2.212357 3.011454
vt 3.603930 2.802958
vt 3.603930 3.011454
vt 3.603930 2.802959
vt -0.754858 2.594462
vt 3.603930 2.594462
vt -0.754858 2.385966
vt 3.603930 2.594462
vt -0.754858 2.594462
vt -2.611992 -1.039129
vt 3.183366 0.312712
vt -2.611992 0.312712
vt 1.831525 0.920342
vt 3.183366 0.717799
vt 3.183366 0.920342
vt -2.611992 -2.390969
vt 3.183366 -1.039129
vt -2.611992 -1.039129
vt 0.479684 0.920342
vt 1.831525 0.717799
vt 1.831525 0.920343
vt -2.611992 0.515256
vt 3.183366 0.515257
vt 3.183366 0.515255
vt -2.611992 0.312713
vt 3.183366 0.312712
vt 1.357051 1.728147
vt 1.357051 -1.695062
vt 2.184504 -1.695062
vt 3.011956 0.846493
vt 2.184504 -0.424284
vt 3.011957 -0.424284
vt 3.011956 -0.424284
vt 2.184503 -1.695062
vt 3.011956 -1.695062
vt -1.412693 -0.214141
vt 2.010518 -0.214141
vt 2.010518 1.056636
vt -0.069668 -0.214142
vt 0.739740 -0.214142
vt 0.739740 1.056635
vt 1.357050 -0.885654
vt 1.357050 2.537556
vt 0.529597 2.537556
vt 3.889462 -1.653550
vt 1.623210 -2.471222
vt 3.889462 -2.471222
vt 1.529829 -0.111588
vt 0.712158 -0.929259
vt 1.529829 -0.929259
vt 3.071791 -1.653550
vt 0.805538 -2.471222
vt 3.071791 -2.471222
vt 0.712158 -0.111588
vt -0.105513 -0.929259
vt 0.712158 -0.929259
vt 1.529829 -3.195513
vt 0.712158 -0.929260
vt 0.712158 -3.195513
vt -0.829804 -2.471222
vt 1.436449 -1.653551
vt -0.829804 -1.653551
vt 1.342588 3.987074
vt -0.923665 3.169402
vt 1.342588 3.169403
vt -1.017045 5.529037
vt -1.834717 4.711365
vt -1.017045 4.711365
vt 0.524917 3.987074
vt -1.741336 3.169402
vt 0.524917 3.169403
vt -1.834717 5.529037
vt -2.652388 4.711365
vt -1.834717 4.711365
vt -1.017045 2.445112
vt -1.834717 4.711365
vt -1.834717 2.445112
vt -3.376679 3.169402
vt -1.110426 3.987074
vt -3.376679 3.987073
vt 3.412288 2.527817
vt 1.574325 3.038720
vt 1.574325 2.983691
vt 3.323840 2.983691
vt 1.712129 2.495445
vt 1.685143 1.040636
vt 1.685143 0.985607
vt 2.163546 0.985607
vt 2.560667 0.898538
vt 1.485878 0.783167
vt 3.282015 -2.711945
vt -2.412288 0.256393
vt -2.412289 3.630320
vt -2.412288 -2.651352
vt 1.485878 0.898537
vt 1.485878 -2.651352
vt 2.045428 1.034704
vt 2.045428 1.502538
vt 1.567026 1.502538
vt 0.341960 0.471449
vt -0.569092 2.013412
vt -0.475711 0.471449
vt -1.386763 2.013412
vt 0.248579 1.195740
vt 0.155199 -0.346222
vt 2.184504 2.537555
vt 1.357051 2.537555
vt 1.357051 1.728147
vt 2.184504 0.846493
vt 2.184503 -0.424284
vt -1.412693 1.056635
vt -2.222100 1.056635
vt -2.222100 -0.214142
vt -0.069668 1.056635
vt -3.492877 1.056635
vt -3.492877 -0.214142
vt 0.529597 -0.885654
vt 0.529597 -1.695062
vt 1.357050 -1.695062
vt -4.620975 -1.622561
vt 4.844747 -1.622561
vt 4.844747 1.825043
vt 4.946815 0.391309
vt -4.314769 1.825041
vt -4.212701 1.825041
vt 4.946815 -4.341549
vt -4.416838 1.825043
vt -4.110633 1.825043
vt -4.518906 1.825045
vt -4.008565 1.825043
vt -1.197705 0.652643
vt 2.067756 1.798056
vt -1.197705 1.999914
vt 2.067756 1.999914
vt 0.720485 -0.896486
vt 0.720485 -1.098345
vt 2.277517 0.591841
vt -1.013741 -0.562621
vt 2.277517 -0.766074
vt -1.013741 -0.766074
vt 0.344174 2.153208
vt 0.344174 2.356662
vt 3.625637 -0.389497
vt 0.965610 1.339062
vt 3.625636 -1.719511
vt 2.295623 1.339062
vt -0.540329 1.339062
vt 3.625637 0.940516
vt 3.603930 0.994392
vt 0.820784 2.802958
vt 3.603930 -0.397181
vt 2.212357 2.802958
vt -0.754858 2.802959
vt 3.603930 2.385966
vt 3.183366 -1.039129
vt 1.831525 0.717799
vt 3.183366 -2.390970
vt 0.479684 0.717799
vt -2.611992 0.717799
vt -2.611992 0.515256
vt 2.184504 1.728147
vt 2.184504 2.537555
vt 1.357051 2.537555
vt 2.184504 0.846493
vt 2.184503 -0.424284
vt -1.412693 1.056635
vt -2.222100 1.056635
vt -2.222100 -0.214142
vt -0.069668 1.056635
vt -3.492877 1.056635
vt -3.492877 -0.214142
vt 0.529597 -0.885654
vt 0.529597 -1.695062
vt 1.357050 -1.695062
vt 1.623210 -1.653551
vt 0.712158 -0.111588
vt 0.805538 -1.653551
vt -0.105513 -0.111588
vt 1.529829 -0.929260
vt 1.436449 -2.471222
vt -0.923665 3.987074
vt -1.834717 5.529037
vt -1.741336 3.987074
vt -2.652388 5.529037
vt -1.017045 4.711365
vt -1.110426 3.169403
vn -1.0000 0.0000 0.0000
vn 1.0000 0.0000 0.0000
vn 0.0000 1.0000 0.0000
vn 0.0000 0.0000 1.0000
vn 0.0000 -1.0000 0.0000
vn 0.0000 0.0000 -1.0000
s off
f 16/1/1 6/2/1 14/3/1
f 13/4/2 4/5/2 2/6/2
f 4/7/3 8/8/3 2/9/3
f 15/10/4 2/11/4 8/12/4
f 9/13/5 12/14/5 10/15/5
f 14/16/3 20/17/3 16/18/3
f 19/19/1 17/20/1 18/21/1
f 11/22/5 18/23/5 12/14/5
f 12/24/2 21/25/2 14/26/2
f 11/22/5 28/27/5 19/28/5
f 22/29/6 23/30/6 21/31/6
f 14/16/3 23/32/3 17/20/3
f 17/20/1 24/33/1 18/21/1
f 18/23/5 22/34/5 12/14/5
f 25/35/4 28/36/4 26/37/4
f 16/38/2 26/39/2 11/40/2
f 19/19/1 27/41/1 20/17/1
f 20/17/3 25/42/3 16/18/3
f 13/43/6 10/44/6 12/45/6
f 30/46/1 31/47/1 29/48/1
f 32/49/6 35/50/6 31/51/6
f 36/52/2 33/53/2 35/54/2
f 34/55/4 29/56/4 33/57/4
f 35/58/5 29/59/5 31/60/5
f 32/61/3 34/62/3 36/63/3
f 39/64/5 43/65/5 47/66/5
f 40/67/2 43/68/2 39/69/2
f 42/70/1 37/71/1 41/72/1
f 47/73/4 43/74/4 44/75/4
f 45/76/6 37/77/6 38/78/6
f 48/79/3 44/80/3 40/81/3
f 50/82/3 54/83/3 53/84/3
f 53/84/3 51/85/3 52/86/3
f 53/84/3 55/87/3 50/82/3
f 49/88/3 58/89/3 54/83/3
f 50/82/3 59/90/3 49/88/3
f 49/88/3 62/91/3 57/92/3
f 55/87/3 60/93/3 50/82/3
f 68/94/5 64/95/5 65/96/5
f 67/97/5 65/96/5 66/98/5
f 69/99/5 65/96/5 64/95/5
f 71/100/5 63/101/5 68/94/5
f 73/102/5 64/95/5 63/101/5
f 76/103/5 63/101/5 72/104/5
f 74/105/5 69/99/5 64/95/5
f 76/106/4 57/107/4 62/108/4
f 74/109/1 59/110/1 60/111/1
f 72/112/4 58/113/4 57/107/4
f 70/114/6 55/115/6 56/116/6
f 75/117/1 60/111/1 61/118/1
f 66/119/6 53/120/6 52/121/6
f 65/122/2 56/123/2 53/124/2
f 73/125/1 62/126/1 59/110/1
f 68/127/4 51/128/4 54/129/4
f 71/130/2 54/131/2 58/132/2
f 69/133/6 61/134/6 55/115/6
f 67/135/2 52/136/2 51/137/2
f 78/138/1 79/139/1 77/140/1
f 80/141/6 83/142/6 79/143/6
f 84/144/2 81/145/2 83/146/2
f 82/147/4 77/148/4 81/149/4
f 83/150/5 77/140/5 79/139/5
f 80/151/3 82/152/3 84/153/3
f 86/154/1 87/155/1 85/156/1
f 88/157/6 91/158/6 87/159/6
f 92/160/2 89/161/2 91/162/2
f 90/163/4 85/164/4 89/165/4
f 91/166/5 85/156/5 87/155/5
f 88/167/3 90/168/3 92/169/3
f 94/170/6 95/171/6 93/172/6
f 96/173/2 99/174/2 95/175/2
f 100/176/4 97/177/4 99/178/4
f 98/179/1 93/180/1 97/181/1
f 99/182/5 93/183/5 95/184/5
f 96/185/3 98/186/3 100/187/3
f 102/188/6 103/189/6 101/190/6
f 104/191/2 107/192/2 103/193/2
f 108/194/4 105/195/4 107/196/4
f 106/197/1 101/198/1 105/199/1
f 107/200/5 101/201/5 103/202/5
f 104/203/3 106/204/3 108/205/3
f 110/206/1 111/207/1 109/208/1
f 112/209/6 115/210/6 111/211/6
f 116/212/2 113/213/2 115/214/2
f 114/215/4 109/216/4 113/217/4
f 115/210/5 109/218/5 111/219/5
f 112/220/3 114/221/3 116/222/3
f 125/223/5 119/224/5 123/225/5
f 120/226/2 123/227/2 119/228/2
f 122/229/1 117/230/1 121/231/1
f 127/232/4 123/233/4 124/234/4
f 125/235/6 117/236/6 118/237/6
f 128/238/3 124/239/3 120/240/3
f 130/241/1 131/242/1 129/243/1
f 132/244/6 135/245/6 131/246/6
f 136/247/2 133/248/2 135/249/2
f 134/250/4 129/251/4 133/252/4
f 135/253/5 129/254/5 131/255/5
f 132/256/3 134/257/3 136/258/3
f 138/259/1 139/260/1 137/261/1
f 140/262/6 143/263/6 139/264/6
f 144/265/2 141/266/2 143/267/2
f 142/268/4 137/269/4 141/270/4
f 143/271/5 137/272/5 139/273/5
f 140/274/3 142/275/3 144/276/3
f 16/1/1 8/277/1 6/2/1
f 2/6/2 15/278/2 13/4/2
f 15/278/2 9/279/2 13/4/2
f 9/279/2 10/280/2 13/4/2
f 4/7/3 6/281/3 8/8/3
f 8/12/4 16/282/4 15/10/4
f 16/282/4 11/283/4 15/10/4
f 11/283/4 9/284/4 15/10/4
f 9/13/5 11/22/5 12/14/5
f 14/16/3 17/20/3 20/17/3
f 19/19/1 20/17/1 17/20/1
f 11/22/5 19/28/5 18/23/5
f 12/24/2 22/285/2 21/25/2
f 11/22/5 26/286/5 28/27/5
f 22/29/6 24/287/6 23/30/6
f 14/16/3 21/288/3 23/32/3
f 17/20/1 23/32/1 24/33/1
f 18/23/5 24/289/5 22/34/5
f 25/35/4 27/290/4 28/36/4
f 16/38/2 25/291/2 26/39/2
f 19/19/1 28/292/1 27/41/1
f 20/17/3 27/41/3 25/42/3
f 12/45/6 14/293/6 13/43/6
f 14/293/6 6/294/6 13/43/6
f 6/294/6 4/295/6 13/43/6
f 30/46/1 32/296/1 31/47/1
f 32/49/6 36/297/6 35/50/6
f 36/52/2 34/298/2 33/53/2
f 34/55/4 30/299/4 29/56/4
f 35/58/5 33/300/5 29/59/5
f 32/61/3 30/301/3 34/62/3
f 47/66/5 41/302/5 37/303/5
f 37/303/5 45/304/5 47/66/5
f 45/304/5 39/64/5 47/66/5
f 40/67/2 44/305/2 43/68/2
f 42/70/1 38/306/1 37/71/1
f 44/75/4 48/307/4 47/73/4
f 48/307/4 42/308/4 47/73/4
f 42/308/4 41/309/4 47/73/4
f 38/78/6 46/310/6 45/76/6
f 46/310/6 40/311/6 45/76/6
f 40/311/6 39/312/6 45/76/6
f 40/81/3 46/313/3 48/79/3
f 46/313/3 38/314/3 48/79/3
f 38/314/3 42/315/3 48/79/3
f 50/82/3 49/88/3 54/83/3
f 53/84/3 54/83/3 51/85/3
f 53/84/3 56/316/3 55/87/3
f 49/88/3 57/92/3 58/89/3
f 50/82/3 60/93/3 59/90/3
f 49/88/3 59/90/3 62/91/3
f 55/87/3 61/134/3 60/93/3
f 68/94/5 63/101/5 64/95/5
f 67/97/5 68/94/5 65/96/5
f 69/99/5 70/317/5 65/96/5
f 71/100/5 72/104/5 63/101/5
f 73/102/5 74/105/5 64/95/5
f 76/103/5 73/102/5 63/101/5
f 74/105/5 75/318/5 69/99/5
f 76/106/4 72/112/4 57/107/4
f 74/109/1 73/125/1 59/110/1
f 72/112/4 71/319/4 58/113/4
f 70/114/6 69/133/6 55/115/6
f 75/117/1 74/109/1 60/111/1
f 66/119/6 65/320/6 53/120/6
f 65/122/2 70/321/2 56/123/2
f 73/125/1 76/322/1 62/126/1
f 68/127/4 67/323/4 51/128/4
f 71/130/2 68/324/2 54/131/2
f 69/133/6 75/325/6 61/134/6
f 67/135/2 66/326/2 52/136/2
f 78/138/1 80/327/1 79/139/1
f 80/141/6 84/328/6 83/142/6
f 84/144/2 82/329/2 81/145/2
f 82/147/4 78/330/4 77/148/4
f 83/150/5 81/331/5 77/140/5
f 80/151/3 78/332/3 82/152/3
f 86/154/1 88/333/1 87/155/1
f 88/157/6 92/334/6 91/158/6
f 92/160/2 90/335/2 89/161/2
f 90/163/4 86/336/4 85/164/4
f 91/166/5 89/337/5 85/156/5
f 88/167/3 86/338/3 90/168/3
f 94/170/6 96/339/6 95/171/6
f 96/173/2 100/340/2 99/174/2
f 100/176/4 98/341/4 97/177/4
f 98/179/1 94/342/1 93/180/1
f 99/182/5 97/343/5 93/183/5
f 96/185/3 94/344/3 98/186/3
f 102/188/6 104/345/6 103/189/6
f 104/191/2 108/346/2 107/192/2
f 108/194/4 106/347/4 105/195/4
f 106/197/1 102/348/1 101/198/1
f 107/200/5 105/349/5 101/201/5
f 104/203/3 102/350/3 106/204/3
f 110/206/1 112/351/1 111/207/1
f 112/209/6 116/352/6 115/210/6
f 116/212/2 114/353/2 113/213/2
f 114/215/4 110/354/4 109/216/4
f 115/210/5 113/355/5 109/218/5
f 112/220/3 110/356/3 114/221/3
f 123/225/5 127/357/5 125/223/5
f 127/357/5 121/358/5 125/223/5
f 121/358/5 117/359/5 125/223/5
f 120/226/2 124/360/2 123/227/2
f 122/229/1 118/361/1 117/230/1
f 124/234/4 128/362/4 127/232/4
f 128/362/4 122/363/4 127/232/4
f 122/363/4 121/364/4 127/232/4
f 118/237/6 126/365/6 125/235/6
f 126/365/6 120/366/6 125/235/6
f 120/366/6 119/367/6 125/235/6
f 120/240/3 126/368/3 128/238/3
f 126/368/3 118/369/3 128/238/3
f 118/369/3 122/370/3 128/238/3
f 130/241/1 132/371/1 131/242/1
f 132/244/6 136/372/6 135/245/6
f 136/247/2 134/373/2 133/248/2
f 134/250/4 130/374/4 129/251/4
f 135/253/5 133/375/5 129/254/5
f 132/256/3 130/376/3 134/257/3
f 138/259/1 140/377/1 139/260/1
f 140/262/6 144/378/6 143/263/6
f 144/265/2 142/379/2 141/266/2
f 142/268/4 138/380/4 137/269/4
f 143/271/5 141/381/5 137/272/5
f 140/274/3 138/382/3 142/275/3
l 11 7
l 5 12
l 9 1
l 3 10
