# Blender v2.83.0 OBJ File: 'alienAltar.blend'
# www.blender.org
o Artefact_Cone
v 0.160987 -0.103952 0.058904
v -0.000000 0.172222 0.058904
v -0.160987 -0.103952 0.058903
v 0.125593 -0.083712 0.058904
v -0.000000 0.131743 0.058904
v -0.125593 -0.083712 0.058903
v 0.083932 -0.059889 0.023635
v -0.000000 0.084096 0.023635
v -0.083932 -0.059889 0.023635
v 0.032446 -0.030448 0.044680
v -0.000000 0.025213 0.044680
v -0.032446 -0.030448 0.044680
v 0.160987 -0.103952 0.000000
v 0.000000 0.172222 0.000000
v -0.160987 -0.103952 0.000000
v 0.160987 -0.103952 -0.058904
v -0.000000 0.172222 -0.058904
v -0.160987 -0.103952 -0.058903
v 0.125593 -0.083712 -0.058904
v -0.000000 0.131743 -0.058904
v -0.125593 -0.083712 -0.058903
v 0.083932 -0.059889 -0.023635
v -0.000000 0.084096 -0.023635
v -0.083932 -0.059889 -0.023635
v 0.032446 -0.030448 -0.044680
v -0.000000 0.025213 -0.044680
v -0.032446 -0.030448 -0.044680
v -0.000000 0.025213 0.014893
v -0.000000 0.025213 -0.014893
v 0.032446 -0.030448 0.014893
v 0.032446 -0.030448 -0.014893
v -0.032446 -0.030448 0.014893
v -0.032446 -0.030448 -0.014893
vt 0.376776 0.000000
vt 0.349164 0.426891
vt 0.376776 0.475841
vt 0.830451 0.618787
vt 0.907606 0.618787
vt 0.907606 0.427572
vt 0.218611 0.475841
vt 0.218611 0.762665
vt 0.295766 0.762665
vt 0.842284 0.000000
vt 0.796087 0.315208
vt 0.842284 0.372940
vt 0.055224 0.277026
vt 0.000000 0.283742
vt 0.000000 0.587300
vt 0.170958 0.544213
vt 0.218611 0.475841
vt 0.888481 0.057731
vt 0.934678 0.372940
vt 0.934678 0.000000
vt 0.934678 0.055325
vt 0.980875 0.333567
vt 0.980875 0.000000
vt 0.170958 0.630387
vt 0.218611 0.698759
vt 0.753297 0.902142
vt 0.725703 0.476466
vt 0.725703 0.846700
vt 0.842284 0.000000
vt 0.888481 0.315208
vt 0.888481 0.065979
vt 0.431963 0.626733
vt 0.376776 0.620185
vt 0.753296 0.427572
vt 0.000000 0.810218
vt 0.169622 0.853305
vt 0.085396 0.810218
vt 0.953803 0.427572
vt 0.907606 0.742780
vt 0.953803 0.800511
vt 0.953803 0.761139
vt 1.000000 0.482896
vt 0.953803 0.427572
vt 0.169622 0.767131
vt 0.217880 0.698759
vt 0.217880 0.921677
vt 0.218611 0.960444
vt 0.313641 1.000000
vt 0.313641 0.960444
vt 0.218611 0.881332
vt 0.313641 0.841777
vt 0.218611 0.841777
vt 0.992604 0.840067
vt 0.907606 0.800511
vt 0.907606 0.840067
vt 0.830451 0.905611
vt 0.907606 0.905611
vt 0.992604 0.879623
vt 0.907606 0.919179
vt 0.992604 0.919179
vt 0.218611 0.762665
vt 0.313641 0.802221
vt 0.313641 0.762665
vt 0.218611 0.881333
vt 0.313641 0.920888
vt 0.313641 0.881333
vt 0.218611 0.920888
vt 0.218611 0.802221
vt 0.349164 0.055666
vt 0.830451 0.427572
vt 0.753297 0.427572
vt 0.753297 0.618787
vt 0.372921 0.762665
vt 0.372921 0.475841
vt 0.295766 0.475841
vt 0.796087 0.065979
vt 0.086450 0.587300
vt 0.888481 0.306961
vt 0.934678 0.278243
vt 0.842284 0.372940
vt 0.907606 0.493550
vt 1.000000 0.705814
vt 0.218611 1.000000
vt 0.313641 0.881332
vt 0.992604 0.800511
vt 0.753297 0.905611
vt 0.907606 0.879623
vn 0.0000 0.0000 1.0000
vn 0.0000 -1.0000 0.0000
vn 0.8639 0.5036 -0.0000
vn -0.7143 -0.4164 0.5625
vn 0.5000 0.2915 0.8155
vn 0.7143 -0.4164 0.5625
vn -0.0000 0.8287 0.5597
vn -0.5000 0.2915 0.8155
vn -0.0000 -0.5815 0.8135
vn 0.0000 0.0000 -1.0000
vn -0.7143 -0.4164 -0.5625
vn 0.5000 0.2915 -0.8155
vn 0.7143 -0.4164 -0.5625
vn -0.0000 0.8287 -0.5597
vn -0.5000 0.2915 -0.8155
vn -0.0000 -0.5815 -0.8135
vn -0.8639 -0.5036 0.0000
vn 0.8639 -0.5036 0.0000
vn 0.0000 1.0000 0.0000
vn -0.8639 0.5036 0.0000
s off
f 2/1/1 4/2/1 1/3/1
f 15/4/2 18/5/2 16/6/2
f 16/7/3 17/8/3 14/9/3
f 5/10/4 7/11/4 4/12/4
f 6/13/1 2/1/1 3/14/1
f 4/2/1 3/14/1 1/3/1
f 8/15/5 10/16/5 7/17/5
f 9/18/6 5/19/6 6/20/6
f 7/21/7 6/22/7 4/23/7
f 12/24/8 8/15/8 9/25/8
f 10/16/9 9/25/9 7/17/9
f 17/26/10 19/27/10 20/28/10
f 20/29/11 22/30/11 23/31/11
f 17/26/10 21/32/10 18/33/10
f 16/34/10 21/32/10 19/27/10
f 23/35/12 25/36/12 26/37/12
f 20/38/13 24/39/13 21/40/13
f 21/41/14 22/42/14 19/43/14
f 23/35/15 27/44/15 24/45/15
f 22/46/16 27/44/16 25/36/16
f 29/47/17 25/48/17 31/49/17
f 27/50/18 29/51/18 33/52/18
f 31/53/19 27/54/19 33/55/19
f 14/56/20 17/57/20 18/5/20
f 30/58/19 12/59/19 10/60/19
f 12/61/18 28/62/18 11/63/18
f 31/49/10 33/52/10 29/47/10
f 11/64/17 30/65/17 10/66/17
f 30/65/1 28/67/1 32/68/1
f 2/1/1 5/69/1 4/2/1
f 16/6/2 13/70/2 15/4/2
f 13/70/2 1/71/2 15/4/2
f 1/71/2 3/72/2 15/4/2
f 14/9/3 2/73/3 1/74/3
f 1/74/3 13/75/3 14/9/3
f 13/75/3 16/7/3 14/9/3
f 5/10/4 8/76/4 7/11/4
f 6/13/1 5/69/1 2/1/1
f 4/2/1 6/13/1 3/14/1
f 8/15/5 11/77/5 10/16/5
f 9/18/6 8/78/6 5/19/6
f 7/21/7 9/79/7 6/22/7
f 12/24/8 11/77/8 8/15/8
f 10/16/9 12/24/9 9/25/9
f 17/26/10 16/34/10 19/27/10
f 20/29/11 19/80/11 22/30/11
f 17/26/10 20/28/10 21/32/10
f 16/34/10 18/33/10 21/32/10
f 23/35/12 22/46/12 25/36/12
f 20/38/13 23/81/13 24/39/13
f 21/41/14 24/82/14 22/42/14
f 23/35/15 26/37/15 27/44/15
f 22/46/16 24/45/16 27/44/16
f 29/47/17 26/83/17 25/48/17
f 27/50/18 26/84/18 29/51/18
f 31/53/19 25/85/19 27/54/19
f 18/5/20 15/4/20 14/56/20
f 15/4/20 3/72/20 14/56/20
f 3/72/20 2/86/20 14/56/20
f 30/58/19 32/87/19 12/59/19
f 12/61/18 32/68/18 28/62/18
f 11/64/17 28/67/17 30/65/17
