# Blender v2.83.0 OBJ File: 'alienAltar.blend'
# www.blender.org
o Doors_Cube.006
v -4.006388 -0.375234 0.355678
v -4.006388 13.502130 0.355678
v -4.006388 -0.375234 -0.355669
v -4.006388 13.502130 -0.355669
v -3.295041 -0.375234 0.355678
v -3.295041 13.502130 0.355678
v -3.295041 -0.375234 -0.355669
v -3.295041 13.502130 -0.355669
v -3.781224 -0.375234 -0.126579
v -3.520457 -0.375234 0.131488
v -3.520457 13.502130 0.131488
v -3.781224 13.502130 -0.126579
v -1.203259 -0.375234 -2.731511
v -1.203259 13.502130 -2.731511
v -0.942493 -0.375234 -2.473444
v -0.942493 13.502130 -2.473444
v 4.018546 -0.375234 0.355678
v 4.018546 13.502130 0.355678
v 4.018546 -0.375234 -0.355669
v 4.018546 13.502130 -0.355669
v 3.307199 -0.375234 0.355678
v 3.307199 13.502130 0.355678
v 3.307199 -0.375234 -0.355669
v 3.307199 13.502130 -0.355669
v 3.793382 -0.375234 -0.126579
v 3.532615 -0.375234 0.131488
v 3.532615 13.502130 0.131488
v 3.793382 13.502130 -0.126579
v 1.215418 -0.375234 -2.731511
v 1.215418 13.502130 -2.731511
v 0.954651 -0.375234 -2.473444
v 0.954651 13.502130 -2.473444
vt 1.677498 1.735545
vt 1.571544 -1.622337
vt 1.677497 -1.622337
vt 1.571544 1.735545
vt 1.465590 -1.622337
vt 1.995359 1.735545
vt 1.889405 -1.622337
vt 1.995359 -1.622337
vt 1.995358 -1.622337
vt 2.101312 1.735545
vt 1.995358 1.735545
vt -1.313216 1.735545
vt -1.163375 1.907668
vt -1.313216 1.907668
vt -0.713852 1.907668
vt -0.863693 1.735545
vt -0.713852 1.735545
vt 2.467778 1.735545
vt 2.390499 -1.622337
vt 2.467778 -1.622337
vt 0.693609 1.735545
vt -0.078373 -1.622336
vt 0.693608 -1.622337
vt 2.622337 1.735545
vt 2.545058 -1.622337
vt 2.622337 -1.622337
vt -0.078373 1.735545
vt -0.850354 -1.622336
vt -0.078373 -1.622337
vt -1.622336 1.735545
vt -1.545056 2.622337
vt -1.622337 2.622337
vt -1.390496 2.622337
vt -1.467776 1.735545
vt -1.390496 1.735545
vt 2.313219 -1.622337
vt 2.207266 1.735545
vt 2.207266 -1.622337
vt 1.783451 1.735545
vt 1.889405 -1.622336
vt 1.889405 1.735545
vt 1.677498 1.735545
vt 1.783451 -1.622336
vt 2.101312 1.735545
vt 2.101312 -1.622337
vt -1.013534 1.735545
vt -1.163375 1.907668
vt -1.163375 1.735545
vt -1.013534 1.907668
vt -0.863693 1.735545
vt -0.863693 1.907668
vt 2.390498 -1.622337
vt 2.313220 1.735545
vt 2.313219 -1.622337
vt -1.622335 1.735545
vt -0.850355 -1.622337
vt -0.850354 1.735545
vt 2.545057 -1.622337
vt 2.467779 1.735545
vt 2.467778 -1.622337
vt 1.465590 -1.622337
vt 0.693609 1.735545
vt 0.693609 -1.622336
vt -1.467776 1.735545
vt -1.545056 2.622337
vt -1.545056 1.735545
vt -1.390496 1.735545
vt -1.313216 2.622337
vt -1.390496 2.622337
vt 1.465590 1.735545
vt 1.889405 1.735545
vt 2.101312 -1.622336
vt -1.163375 1.735545
vt -0.863693 1.907668
vt 2.390499 1.735545
vt -0.078372 1.735545
vt 2.545058 1.735545
vt -0.850354 1.735545
vt -1.545056 1.735545
vt -1.467776 2.622337
vt 2.313219 1.735545
vt 1.677498 -1.622337
vt -1.013534 1.907668
vt -1.013534 1.735545
vt 2.390499 1.735545
vt -1.622337 -1.622336
vt 2.545058 1.735545
vt 1.465590 1.735545
vt -1.467776 2.622337
vt -1.313216 1.735545
vn -1.0000 0.0000 0.0000
vn 0.0000 0.0000 -1.0000
vn 1.0000 0.0000 0.0000
vn 0.0000 0.0000 1.0000
vn 0.0000 -1.0000 0.0000
vn 0.0000 1.0000 0.0000
vn -0.7034 0.0000 0.7108
vn -0.7108 0.0000 -0.7034
vn 0.7034 0.0000 -0.7108
vn 0.7108 0.0000 0.7034
vn 0.7034 0.0000 0.7108
vn 0.7108 0.0000 -0.7034
vn -0.7034 0.0000 -0.7108
vn -0.7108 0.0000 0.7034
s off
f 2/1/1 3/2/1 1/3/1
f 4/4/2 7/5/2 3/2/2
f 8/6/3 5/7/3 7/8/3
f 6/9/4 1/10/4 5/11/4
f 7/12/5 1/13/5 3/14/5
f 4/15/6 6/16/6 8/17/6
f 11/18/7 9/19/7 10/20/7
f 12/21/8 13/22/8 9/23/8
f 14/24/9 15/25/9 13/26/9
f 16/27/10 10/28/10 15/29/10
f 13/30/5 10/31/5 9/32/5
f 12/33/6 16/34/6 14/35/6
f 19/36/3 18/37/3 17/38/3
f 23/39/2 20/40/2 19/41/2
f 21/42/1 24/43/1 23/39/1
f 17/38/4 22/44/4 21/45/4
f 17/46/5 23/47/5 19/48/5
f 22/49/6 20/50/6 24/51/6
f 25/52/11 27/53/11 26/54/11
f 29/55/12 28/56/12 25/57/12
f 31/58/13 30/59/13 29/60/13
f 26/61/14 32/62/14 31/63/14
f 26/64/5 29/65/5 25/66/5
f 30/67/6 27/68/6 28/69/6
f 2/1/1 4/4/1 3/2/1
f 4/4/2 8/70/2 7/5/2
f 8/6/3 6/71/3 5/7/3
f 6/9/4 2/72/4 1/10/4
f 7/12/5 5/73/5 1/13/5
f 4/15/6 2/74/6 6/16/6
f 11/18/7 12/75/7 9/19/7
f 12/21/8 14/76/8 13/22/8
f 14/24/9 16/77/9 15/25/9
f 16/27/10 11/78/10 10/28/10
f 13/30/5 15/79/5 10/31/5
f 12/33/6 11/80/6 16/34/6
f 19/36/3 20/81/3 18/37/3
f 23/39/2 24/43/2 20/40/2
f 21/42/1 22/82/1 24/43/1
f 17/38/4 18/37/4 22/44/4
f 17/46/5 21/83/5 23/47/5
f 22/49/6 18/84/6 20/50/6
f 25/52/11 28/85/11 27/53/11
f 29/55/12 30/86/12 28/56/12
f 31/58/13 32/87/13 30/59/13
f 26/61/14 27/88/14 32/62/14
f 26/64/5 31/89/5 29/65/5
f 30/67/6 32/90/6 27/68/6
